PathFileType	4	(X/Y/Z)	C:\Users\Hakeem\Desktop\Python Projects\BasketballMotionAnalysis\Sports2D_Results\free_throw_Sports2D\free_throw_Sports2D_px_person00.trc
DataRate	CameraRate	NumFrames	NumMarkers	Units	OrigDataRate	OrigDataStartFrame	OrigNumFrames
30.0	30.0	6	22	m	30.0	60	90
Frame#	Time	Hip			RHip			RKnee			RAnkle			RBigToe			RSmallToe			RHeel			LHip			LKnee			LAnkle			LBigToe			LSmallToe			LHeel			Neck			Head			Nose			RShoulder			RElbow			RWrist			LShoulder			LElbow			LWrist			
		X1	Y1	Z1	X2	Y2	Z2	X3	Y3	Z3	X4	Y4	Z4	X5	Y5	Z5	X6	Y6	Z6	X7	Y7	Z7	X8	Y8	Z8	X9	Y9	Z9	X10	Y10	Z10	X11	Y11	Z11	X12	Y12	Z12	X13	Y13	Z13	X14	Y14	Z14	X15	Y15	Z15	X16	Y16	Z16	X17	Y17	Z17	X18	Y18	Z18	X19	Y19	Z19	X20	Y20	Z20	X21	Y21	Z21	X22	Y22	Z22
60	2.0224719101123596	533.6487529161342	638.1450330683003	0.0	526.1151989871549	637.2511991672696	0.0	512.2868025580835	740.4613199003059	0.0	500.2697120443025	837.8139540873319	0.0	531.7570198597808	867.0542346240435	0.0	517.1691040509414	869.2823726473674	0.0	491.7353728092697	848.8575141367726	0.0	543.377367672147	639.8786840008788	0.0	530.2045843598991	738.7065569267473	0.0	524.5717240885558	825.4004475527962	0.0	548.4429621356685	856.0288236752621	0.0	549.7372216220867	848.5997553344016	0.0	515.8858703273902	838.4847244966701	0.0	535.683359367621	496.1495263856336	0.0	522.1655474842315	435.94924671111306	0.0	549.7359065964391	463.26921213158334	0.0	538.7897787283682	508.1538749875747	0.0	595.812621706841	528.6183937598099	0.0	640.5902920092522	507.82337850093705	0.0	535.2035733327732	510.84634930977563	0.0	588.5523800040264	541.3790825393486	0.0	627.7114892082222	520.8284389539576	0.0
61	2.056179775280899	533.4613412440684	638.8766101136878	0.0	525.8261634108487	637.9030792046043	0.0	513.032802411214	740.5754880451814	0.0	500.8495927635273	838.5184339878703	0.0	531.4642260980988	865.52195807429	0.0	515.8295366921438	867.2090675584589	0.0	492.60866727441106	849.2014184826576	0.0	543.1326980061946	640.1140279266394	0.0	530.1992891454822	738.6514801310478	0.0	524.3789770105334	826.1539686492563	0.0	548.2304690571684	855.4597998576205	0.0	549.2904765004613	848.5328177270628	0.0	516.3980408599365	838.9140602351198	0.0	535.5395889248869	497.0840046649175	0.0	523.367176945133	436.19088859116073	0.0	549.8800050506644	463.96300093041623	0.0	539.1891899031125	512.9727821358819	0.0	590.809981691248	543.6344821176089	0.0	644.8979855005359	533.7098872983578	0.0	530.9226272882279	513.4875068732018	0.0	572.269159688035	555.391741030434	0.0	605.4071027283649	559.1582520923647	0.0
62	2.089887640449438	533.2123965901269	639.8849023788837	0.0	525.8352269046494	638.9946040455604	0.0	513.886982999889	741.2967667177769	0.0	501.0430893391993	839.010661574137	0.0	530.833300134349	864.8118948281411	0.0	514.2830647529645	865.3846740238448	0.0	492.95816757856994	849.8850088620026	0.0	542.5198841895153	640.2502071427077	0.0	530.0776011445838	738.9954803391869	0.0	523.9403928167523	826.8117368895527	0.0	548.5159906935615	854.4939180651772	0.0	548.8187637672982	848.0067524041515	0.0	516.8516968602332	839.0363151550619	0.0	535.3166058109686	497.7357585350626	0.0	525.0271517018604	436.6225613490144	0.0	549.9992782529288	464.82352909030163	0.0	538.7234979133787	518.4370170474922	0.0	582.3550825603172	557.7317565739394	0.0	643.9031167309473	562.0472060191979	0.0	528.7795464633059	516.1344708501919	0.0	554.9726244648854	566.5490400781695	0.0	581.8555843864474	595.8122244798216	0.0
63	2.1235955056179776	532.8194328740884	641.1372091840576	0.0	526.5004794325018	640.7951868077461	0.0	514.4052272516793	742.0861021823637	0.0	500.67700790047445	839.1380735503399	0.0	530.3244952158761	865.8551255839261	0.0	513.7065411039506	865.2982710752252	0.0	492.06948962439196	850.833426158531	0.0	541.1731321389515	640.8178669949523	0.0	529.7302554581504	739.5330981589112	0.0	523.0986450870812	827.0892537569131	0.0	549.1670613007657	853.5284844225197	0.0	548.2591286932171	847.3603773430659	0.0	516.365397119406	839.2170935000156	0.0	535.3965949397339	499.0546529425302	0.0	526.2354587711461	436.91713319672397	0.0	551.0690153652631	465.4416984841574	0.0	538.5677566763995	523.4200347997812	0.0	572.9231154277466	572.152101432572	0.0	632.6409603867656	592.8563646966599	0.0	528.6101945331416	519.0227491567455	0.0	546.8163698850863	574.7873344744263	0.0	576.5768009583003	616.1897519536358	0.0
64	2.157303370786517	532.5937612352058	643.4904991965185	0.0	527.5852356178286	643.8805222199475	0.0	514.3051500145012	742.892430335517	0.0	500.0132012054045	838.9349088291021	0.0	530.1032596354925	867.6307833675581	0.0	514.5163758652026	866.7075386929089	0.0	490.0029958283286	851.6786901635426	0.0	539.2409557192053	643.0359466695568	0.0	528.9010577696052	740.5365769902	0.0	521.607867996487	827.6731988228283	0.0	549.5937232846487	853.454172321841	0.0	547.5450567378304	847.3594542057979	0.0	514.1889472576008	840.376030829433	0.0	536.2485905594145	501.2126279471453	0.0	526.0401597240627	437.1960768207419	0.0	552.8778324795139	465.22548771719653	0.0	538.7327192121918	527.5699693559162	0.0	564.2351494454463	586.3634652554111	0.0	609.0349507420365	623.928233978821	0.0	530.2335828458043	521.9512590777625	0.0	547.6586536559838	581.8270657115012	0.0	583.2867264172639	626.6128810721046	0.0
65	2.191011235955056	533.0275208379812	647.6891125338072	0.0	528.5572930230185	648.4400706172217	0.0	513.3716803407067	744.2469877066285	0.0	499.1849248651039	838.9408112868784	0.0	529.6509250647051	868.3410926239017	0.0	515.7408596983248	868.2130748439843	0.0	488.0121075934894	852.5623578652386	0.0	537.8433471707436	647.5134412813145	0.0	527.7231879508593	742.5231518490892	0.0	519.3592452595263	829.1803538424119	0.0	549.5998420792134	854.5600522683986	0.0	547.0161235376744	848.2365068556539	0.0	511.03432913390526	842.6728596471512	0.0	537.6883184003151	503.85002380827353	0.0	525.5600837365245	438.6146225904018	0.0	554.5065693604201	464.8484553331186	0.0	537.8054879430731	530.8860816947938	0.0	553.9509338501102	597.3736912074319	0.0	575.9042939319413	648.9821463555369	0.0	532.9632553858701	524.5469444887171	0.0	547.1754856761752	588.4766903399878	0.0	578.4296228983528	637.7808983617683	0.0
